# xmcd
#
# Track frame offsets:
# 150
# 26763
# 50269
# 75458
# 94935
# 121184
# 135602
# 157791
# 178161
# 201831
# 222085
# 244605
# 267755
# 288020
# 304868
#
# Disc length: 4231 seconds
#
#
# Revision: 0
# Processed by: cddbd v1.5.2PL0 Copyright (c) Steve Scherf et al.
# Submitted via: FreeRIP 2.40 
#
DISCID=c310850f
DTITLE=Bernadette Seacrest - Live
DYEAR=2005
DGENRE=Torch Blues
TTITLE0=Summertime
TTITLE1=Nobody's Cryin'
TTITLE2=Caravan
TTITLE3=So Cruel
TTITLE4=Early in the Morning
TTITLE5=Temptation
TTITLE6=Smokin' Cigars
TTITLE7=Tango
TTITLE8=Money
TTITLE9=When the Sun Comes
TTITLE10=Fever
TTITLE11=Wrong Turn
TTITLE12=Money
TTITLE13=Man's Ruin
TTITLE14=Rain
EXTD=
EXTT0=
EXTT1=
EXTT2=
EXTT3=
EXTT4=
EXTT5=
EXTT6=
EXTT7=
EXTT8=
EXTT9=
EXTT10=
EXTT11=
EXTT12=
EXTT13=
EXTT14=
PLAYORDER=
